<?xml version="1.0" standalone="no"?>
<!DOCTYPE svg PUBLIC "-//W3C//DTD SVG 20010904//EN"
 "http://www.w3.org/TR/2001/REC-SVG-20010904/DTD/svg10.dtd">
<svg version="1.0" xmlns="http://www.w3.org/2000/svg"
 width="256.000000pt" height="256.000000pt" viewBox="0 0 256.000000 256.000000"
 preserveAspectRatio="xMidYMid meet">
<metadata>
Created by potrace 1.11, written by Peter Selinger 2001-2013
</metadata>
<g transform="translate(0.000000,256.000000) scale(0.100000,-0.100000)"
fill="#000000" stroke="none">
<path d="M1005 2550 c-3 -6 -8 -31 -10 -56 -1 -25 -4 -46 -6 -48 -2 -2 -35
-13 -74 -24 -195 -59 -391 -187 -544 -357 -61 -68 -158 -222 -196 -312 -266
-633 29 -1344 663 -1597 99 -40 237 -74 249 -62 11 10 12 287 1 308 -4 9 -25
19 -46 23 -53 9 -176 63 -247 110 -134 88 -266 246 -328 393 -134 317 -73 677
160 941 59 68 182 160 265 199 100 47 103 47 106 10 2 -18 6 -36 10 -40 7 -7
89 45 187 116 11 8 57 42 102 75 53 39 81 65 77 74 -5 15 -28 33 -144 114 -41
29 -101 71 -132 93 -69 48 -84 55 -93 40z m-651 -1301 c5 -108 7 -125 32 -224
52 -200 206 -409 392 -529 73 -48 183 -98 241 -111 30 -6 31 -8 31 -66 0 -69
2 -68 -96 -38 -155 48 -292 129 -413 244 -180 172 -291 400 -316 647 l-7 66
64 60 c34 33 64 59 65 58 2 -1 5 -49 7 -107z m-174 -64 c1 -96 54 -285 115
-405 64 -126 189 -276 305 -365 108 -82 273 -162 408 -195 40 -10 42 -13 42
-46 0 -35 -1 -35 -32 -29 -112 22 -283 97 -399 175 -85 57 -243 218 -300 305
-124 188 -184 373 -195 590 l-5 100 30 -45 c22 -31 31 -57 31 -85z"/>
<path d="M1468 2448 c-8 -21 -3 -292 5 -305 5 -7 15 -13 24 -13 9 0 43 -10 77
-22 360 -129 593 -464 589 -844 -4 -343 -213 -659 -527 -798 -63 -28 -78 -26
-75 7 2 38 -1 47 -17 47 -8 0 -86 -50 -172 -112 -191 -136 -193 -137 -184
-154 10 -19 343 -254 359 -254 7 0 13 10 14 23 3 85 -4 77 94 108 668 217
1010 975 731 1619 -32 74 -113 215 -141 247 -5 6 -35 40 -65 75 -134 156 -321
279 -525 346 -115 38 -180 49 -187 30z m151 -64 c98 -30 234 -95 324 -156 127
-85 294 -275 366 -416 41 -80 88 -207 100 -272 7 -36 15 -74 17 -85 2 -11 7
-62 10 -114 l7 -94 -30 18 c-24 14 -30 25 -31 54 -12 334 -199 667 -480 854
-105 70 -313 157 -376 157 -12 0 -16 10 -16 40 0 24 5 40 12 40 7 0 50 -12 97
-26z m19 -130 c141 -47 268 -124 378 -231 123 -118 201 -237 254 -382 40 -110
52 -161 65 -290 l5 -49 -64 -46 c-36 -25 -66 -46 -68 -46 -2 0 -2 34 -1 75 2
120 -38 289 -98 408 -109 215 -320 395 -543 464 l-56 17 0 58 0 58 28 -6 c15
-3 60 -17 100 -30z"/>
<path d="M1140 1954 c-75 -22 -130 -56 -175 -107 -63 -70 -88 -140 -91 -262
-5 -178 59 -355 171 -472 60 -62 60 -64 35 -69 -145 -33 -281 -112 -393 -228
-117 -121 -166 -111 563 -112 344 0 631 2 638 4 26 9 9 40 -58 110 -103 106
-241 188 -375 221 l-41 11 56 58 c104 109 170 275 176 437 4 107 -10 171 -53
246 -38 68 -102 123 -175 151 -66 26 -212 32 -278 12z m125 -945 c22 1 51 3
65 4 14 2 52 -3 85 -10 138 -31 274 -105 370 -202 l49 -51 -574 0 -574 0 30
32 c16 18 36 37 44 43 9 5 127 10 285 11 149 1 278 2 288 3 21 1 23 27 1 35
-9 3 -127 6 -262 6 -268 0 -260 -2 -162 52 53 29 167 69 219 75 20 3 38 7 39
8 2 2 16 1 30 -2 15 -3 45 -5 67 -4z"/>
</g>
</svg>
